# xmcd
#
# Track frame offsets: 
#        150
#        10417
#        25130
#        40667
#        54885
#        63960
#        77937
#        89700
#        104025
#        118287
#        131272
#        142655
#        155245
#        169532
#        184012
#        198045
#        212950
#        230262
#        247752
#        259680
#
# Disc length: 3656 seconds
#
# Revision: 0
# Processed by: cddbd v1.5.1PL2 Copyright (c) Steve Scherf et al.
# Submitted via: ExactAudioCopy v0.95a5
#
DISCID=0a0e4614
DTITLE=C.Jérôme - Compilation
DYEAR=2000
DGENRE=Folk
TTITLE0=Les fiancés
TTITLE1=Le petit chaperon rouge est mort
TTITLE2=Quand la mer se retire
TTITLE3=Belle
TTITLE4=Terminus
TTITLE5=Kiss me
TTITLE6=Himalaya
TTITLE7=Manhattan
TTITLE8=La petite fille 73
TTITLE9=C'est moi
TTITLE10=Baby boy
TTITLE11=Hop la dites-moi
TTITLE12=Quand tu danses
TTITLE13=Le charme français
TTITLE14=Souvenirs 78
TTITLE15=Les mamans
TTITLE16=Le monde à l'envers
TTITLE17=J' t'aime
TTITLE18=Julie à la folie
TTITLE19=Chanter
EXTD=
EXTT0=
EXTT1=
EXTT2=
EXTT3=
EXTT4=
EXTT5=
EXTT6=
EXTT7=
EXTT8=
EXTT9=
EXTT10=
EXTT11=
EXTT12=
EXTT13=
EXTT14=
EXTT15=
EXTT16=
EXTT17=
EXTT18=
EXTT19=
PLAYORDER=
